<svg id="Layer_2" data-name="Layer 2" xmlns="http://www.w3.org/2000/svg" xmlns:xlink="http://www.w3.org/1999/xlink" viewBox="0 0 1510.3 1885.65"><defs><style>.cls-1{fill:#f7c200;}.cls-2{fill:#ebb392;}.cls-3{fill:#f7c9a2;}.cls-4{fill:url(#linear-gradient);}.cls-5{fill:#0a0708;}.cls-6{fill:#f2f2f2;}.cls-7{fill:#121322;}.cls-8{fill:#4f5264;}.cls-9{fill:#b3b3b3;}.cls-10{fill:#393c47;}.cls-11{fill:#6c7082;}.cls-12{fill:url(#linear-gradient-2);}.cls-13{fill:url(#linear-gradient-3);}.cls-14{fill:url(#linear-gradient-4);}.cls-15{fill:url(#linear-gradient-5);}.cls-16{fill:url(#linear-gradient-6);}.cls-17{fill:#be7c65;}.cls-18{fill:url(#linear-gradient-7);}.cls-19,.cls-20{fill:#c16527;stroke:#000;stroke-miterlimit:10;}.cls-19{stroke-width:4px;}.cls-21{fill:#ccc;}.cls-22{fill:#b73d37;}.cls-23{fill:url(#linear-gradient-8);}.cls-24{fill:#999;}.cls-25{fill:url(#linear-gradient-9);}.cls-26{fill:gray;}.cls-27{fill:#f27a6e;}.cls-28{fill:#d86357;}.cls-29{fill:#0f0f0f;}.cls-30{fill:#1e1e1e;}.cls-31{fill:#b53933;}</style><linearGradient id="linear-gradient" x1="1120.71" y1="1541.26" x2="932.91" y2="1279.12" gradientUnits="userSpaceOnUse"><stop offset="0" stop-color="#be7c65" stop-opacity="0"/><stop offset="1" stop-color="#be7c65"/></linearGradient><linearGradient id="linear-gradient-2" x1="1367.8" y1="1472.23" x2="1367.8" y2="515.22" gradientUnits="userSpaceOnUse"><stop offset="0" stop-color="#fce2cf" stop-opacity="0"/><stop offset="1" stop-color="#fce2cf"/></linearGradient><linearGradient id="linear-gradient-3" x1="1118.46" y1="1020.57" x2="1252.68" y2="906.05" xlink:href="#linear-gradient-2"/><linearGradient id="linear-gradient-4" x1="1112.97" y1="1189.42" x2="1310.26" y2="1305.83" xlink:href="#linear-gradient-2"/><linearGradient id="linear-gradient-5" x1="949.4" y1="753.77" x2="753.24" y2="939.24" xlink:href="#linear-gradient-2"/><linearGradient id="linear-gradient-6" x1="1082.59" y1="701" x2="1098.74" y2="879.53" xlink:href="#linear-gradient-2"/><linearGradient id="linear-gradient-7" x1="957.59" y1="1803.81" x2="957.59" y2="487.68" xlink:href="#linear-gradient"/><linearGradient id="linear-gradient-8" x1="1240.65" y1="703.06" x2="1236.38" y2="744.73" gradientUnits="userSpaceOnUse"><stop offset="0" stop-color="#0a0708"/><stop offset="1" stop-color="#0071bc"/></linearGradient><linearGradient id="linear-gradient-9" x1="908.12" y1="703.66" x2="910.5" y2="740.69" xlink:href="#linear-gradient-8"/></defs><title>meAsAvatar</title><circle class="cls-1" cx="765.61" cy="1164.66" r="708.99"/><path class="cls-2" d="M1235,1478.54c-9.68,9.74-61.44,61.13-110.29,95.52-27.19,19.14-53.47,33-71.1,31.52-22.93-1.95-62.26-24.84-107.89-62.8-37-30.81-73.24-67.85-84.22-86.17a39.23,39.23,0,0,1-5.3-22.14c.38-9.92,3.73-20,8-28.88a145.3,145.3,0,0,1,20-30.56l1-1.11-.11-1.48c-.09-1.32-10-134-18-182.87a5.08,5.08,0,0,1,1.68-4.77c4.61-4.61,19.62-10.25,65.44-10.25,29,0,70.43,2.27,129.35,8.47,77.1,8.14,151.82,19.68,168.46,22.31-.29,1.89-.7,4.52-1.2,7.8-5.33,35.38-20.76,146.13-16,215.38l0,.56Z" transform="translate(-244.85 -126.35)"/><path class="cls-3" d="M1235,1478.54c-9.68,9.74-61.44,61.13-110.29,95.52l27.61-242,78.49-118.94c-5.33,35.38-20.76,146.13-16,215.38l0,.56Z" transform="translate(-244.85 -126.35)"/><path class="cls-4" d="M1167.12,1341.94l-84.41,145.14s-103.4-13.91-138.77,15.64c-26.69,22.29-68.7-37.53-87.72-68.25.38-9.92,3.73-20,8-28.88,14-10.45,31.14-26.24,31.53-41.09.66-25.17,0-140.15,0-140.15Z" transform="translate(-244.85 -126.35)"/><path class="cls-5" d="M1221.73,1427.47c-5.51-82.14,17.48-223,17.71-224.47l.57-3.44-3.44-.55c-.84-.14-85-13.7-172.25-22.9-51.3-5.41-93.63-8.28-125.82-8.53-41.62-.32-66.06,3.71-74.64,12.31a12.07,12.07,0,0,0-3.62,10.82c7.54,45.78,16.72,166.22,17.81,180.8-6.78,8-43.49,53.63-22.49,88.67,11.51,19.21,47.57,56.19,85.73,87.94,27.44,22.83,78.46,61.56,111.76,64.38,1,.09,2,.13,3,.13,57.14,0,180.19-125.42,185.5-130.85l1.59-1.63Zm-168.09,178.1c-22.94-1.94-62.27-24.83-107.9-62.79-37-30.81-73.24-67.85-84.21-86.17-20-33.29,22.26-81.11,22.69-81.59l1-1.1-.11-1.47c-.1-1.34-10-134-18-182.87a5.12,5.12,0,0,1,1.69-4.78c4.6-4.62,19.61-10.25,65.44-10.25,29,0,70.41,2.26,129.33,8.47,77.12,8.14,151.82,19.68,168.47,22.31-3.51,22.33-22.41,147.52-17.2,223.18l0,.55,20.15,49.48C1220,1493.71,1102.93,1609.75,1053.64,1605.57Z" transform="translate(-244.85 -126.35)"/><path class="cls-6" d="M1252.34,1464.06c.15,11.56-.95,69.65-36.14,95.9,2.93-5.76,4.07-11.28,3.37-16.5-1.46-10.86-10.38-16-10.76-16.24l-3.54-2-1.43,3.81c-2.19,5.84-9.51,22.14-17,27.34-5.83,4.05-49.82,15.71-87,24.86,36.79-23.91,90.88-61.37,109.06-86,6.86-9.3,11-17.42,13.34-24.41,6.25-18.81-.83-29.41-3.92-32.91l2.1-60.42a43.67,43.67,0,0,1,16.17,12.3c12.85,15.33,18.29,40.16,15.73,71.8l-.19,2.36Z" transform="translate(-244.85 -126.35)"/><path class="cls-6" d="M956,1574.15q-7.79-2.48-16.07-5.32c-14.77-5.07-30.69-11-47.67-18l-3.56-1.5c-29.3-31.32-37.95-83-40.21-102v0c-.44-3.72-.64-6.19-.7-7,.51-4.1,6.76-49.8,29.53-69v25.45c-3,4-9.35,16.88,9.07,42.3,11.08,15.3,50.82,51.07,89.7,86-18.67-9-25.08-8-28.29-6.22s-5.06,5.56-5.32,11.25C941.91,1541.72,948,1561.56,956,1574.15Z" transform="translate(-244.85 -126.35)"/><path class="cls-7" d="M1027.55,1639.74a494.68,494.68,0,0,1-74.91-12.09c53.43,47.45,147.17,171.38,167.75,198.89,20.82-57.16,77.09-170.82,92.4-201.44-2,.64-4,1.24-6.12,1.79-37.75,9.86-82.66,15-128.24,15C1061.45,1641.91,1044.38,1641.2,1027.55,1639.74Z" transform="translate(-244.85 -126.35)"/><path class="cls-6" d="M874.39,1542.82c-24.7-11.93-40.94-24-51.6-34.69a85.35,85.35,0,0,1-14.51-18.86c-8.13-14.77-6.76-25.7-6.28-28.22a48.82,48.82,0,0,1,18.64-14A46.16,46.16,0,0,1,841,1443.4C842.18,1456.31,848.22,1506.46,874.39,1542.82Z" transform="translate(-244.85 -126.35)"/><path class="cls-8" d="M1640,1741.82c3.94-42.36,6-73.42,6.38-78.64-1.27-3.11-7.95-17.89-25.7-35.73-18.44-18.51-52.93-44.2-112.53-61.43-77.79-22.46-164.53-59.79-213.83-82.24a202.77,202.77,0,0,1-1.6,33.34,187.46,187.46,0,0,1-5,25.23c-10.64,38.69-33.08,65.79-65.36,79.27-7,13.94-77.11,153.7-97.53,213.35l-2.14,6.26-3.94-5.32c-.55-.75-24.45-32.93-55.8-72.5-41.47-52.38-96-117.7-126.58-140.14-29.52-8.61-59.12-21.14-84.53-39.33-47.82-34.25-67.79-66-76.11-86.52-.95-2.33-1.77-4.56-2.48-6.71-.05-.18-.11-.36-.16-.52-.32-.92-.6-1.83-.85-2.71-.18-.62-.28-.94-.28-.94a77.27,77.27,0,0,1-3.27-22.3,384,384,0,0,0-38.49,8.52c-9.88,2.65-19.25,5.28-28.31,7.82-43.39,12.15-80.87,22.65-149,29.36-56.19,5.55-90.41,26.18-113,39.84-10.64,6.41-19,11.47-26.66,13.38a18.55,18.55,0,0,0-6,2.86c7.39,10.09,34.19,47.2,62.67,93.13,30.32,48.89,52.68,91.48,66.86,127.28a318.72,318.72,0,0,1,13.18,40.14c.56,2.22,1.06,4.4,1.52,6.54,19.29,89.68,22.84,156.46,23.43,171.94H1597c13-37.84,23.25-97,31-155.67C1633.08,1811.27,1637.05,1773.4,1640,1741.82Z" transform="translate(-244.85 -126.35)"/><path class="cls-8" d="M1687.35,1763.37c-10.31-44.28-26.32-75.5-34.72-89.85-.9,12.66-2.66,35.69-5.3,64.36-2,22.19-4.62,47.76-7.73,74.5-8,69-19.69,145.89-35.25,192.67h141.91C1739.34,1977,1700.7,1820.68,1687.35,1763.37Z" transform="translate(-244.85 -126.35)"/><path class="cls-8" d="M518,1761c-14.78-31.59-33.25-64.14-51.17-93.32-29.06-47.3-56.68-85.74-64.82-96.9-11.17,12.46-18.68,36.18-21.05,46.61l-.14.6-.34.52c-22.85,35.08-114.3,345.52-126.34,386.59H567.87c-.6-15.65-4.18-81.74-23.27-170.48C539.81,1812.29,530.15,1787,518,1761Z" transform="translate(-244.85 -126.35)"/><path class="cls-7" d="M775.63,1463.23c-.2,4.83.22,16.37,6.74,32.18,8.06,19.58,27.36,49.85,73.47,82.88,57.93,41.48,143.59,56.51,221.47,56.51,48.37,0,93.73-5.79,127.6-14.64,38.66-10.1,64.23-36.83,76-79.46a194.71,194.71,0,0,0,6.26-60.18c-12.77-5.87-22.4-10.45-27.86-13.07a187,187,0,0,1-3.76,35.32c-6.11,29.61-19.13,51.93-37.66,64.53-44.7,30.39-72.36,37-155,37.1l-1.67,1-1-1.11c-10.37-.78-73.61-7-170.72-47.09-45-18.58-74.51-40.55-87.78-65.31-7.2-13.43-7.5-24.14-7-29.52C791.72,1462.09,785.78,1462,775.63,1463.23Z" transform="translate(-244.85 -126.35)"/><path class="cls-5" d="M1754.08,2007.69c-.45-1.83-45.35-183.21-60-245.9C1680,1701.1,1656,1665.26,1653,1661c-1.15-3-7.86-18.7-27-38.07-19-19.22-54.57-45.86-115.89-63.57-107.78-31.14-233-91-250.66-99.57,2.32-33.12-3.7-58.31-17.9-74.9-11.14-13-23.25-15.49-23.76-15.59l-4-.78-2.46,70.65,0,1.66,1.23,1.08c.67.6,16.09,14.93-9.21,49.19-24.87,33.68-123.75,95-140.66,105.36-15-16.49-46.69-45-80.18-75-39.16-35.18-79.66-71.56-90.48-86.49-18.11-25-9-34.26-8.93-34.3l1.19-.94V1358.4l-5.25,3.11c-27.21,16.14-35.82,62-37.73,74.93-24.4-1.12-39.29,13.86-43.84,19.24-6.21-1-24.4-1.6-69.06,10.37-9.91,2.65-19.31,5.29-28.39,7.83-43.08,12.07-80.28,22.49-147.77,29.15-57.75,5.69-92.78,26.81-116,40.79-10.13,6.11-18.14,10.94-24.76,12.6-23.81,5.95-35.7,52.62-37.17,58.78-25.45,40.73-124,378-128.16,392.35l-1.3,4.45h1510.3ZM439.83,1549.78c22.64-13.66,56.85-34.29,113.05-39.84,68.09-6.71,105.56-17.21,149-29.36,9.06-2.54,18.43-5.17,28.31-7.82a386.88,386.88,0,0,1,38.49-8.52c-.11,6.08.78,17.74,7,33.18,8.33,20.57,28.3,52.27,76.11,86.52,25.41,18.2,55,30.72,84.53,39.33,53.71,39.39,181.09,210.9,182.38,212.64l3.94,5.31,2.14-6.25c20.43-59.64,90.52-199.41,97.53-213.35,32.28-13.48,54.73-40.58,65.36-79.27a200.12,200.12,0,0,0,6.64-58.57c49.3,22.45,136,59.77,213.83,82.25,59.6,17.22,94.09,42.9,112.53,61.42,17.75,17.84,24.42,32.61,25.7,35.73-1,15.1-16.65,246.43-49.35,341.87H574.83c-.59-15.48-4.14-82.26-23.43-171.94-9.27-43.12-36.72-101.65-81.56-174-28.48-45.93-55.28-83-62.67-93.13a18.14,18.14,0,0,1,6-2.86C420.8,1561.25,429.2,1556.19,439.83,1549.78Zm437.45-178.54v25.46c-3,4-9.35,16.88,9.06,42.3,11.09,15.3,50.83,51.08,89.71,86-18.67-9-25.08-8-28.29-6.22s-5.07,5.56-5.32,11.26c-.52,11.68,5.6,31.52,13.52,44.11-19.08-6.08-40.41-13.73-63.74-23.37l-3.57-1.5c-35-37.46-40.54-104-40.9-109C848.26,1436.14,854.51,1390.44,877.28,1371.24Zm341,66.67,2.1-60.43a43.86,43.86,0,0,1,16.16,12.31c12.86,15.33,18.31,40.16,15.74,71.8l-.19,2.36.23.11c.15,11.56-.95,69.65-36.14,95.9,2.93-5.77,4.07-11.28,3.37-16.5-1.46-10.86-10.38-16-10.76-16.24l-3.54-2-1.43,3.81c-2.19,5.84-9.51,22.14-17,27.34-5.83,4.05-49.82,15.71-87,24.85,36.79-23.9,90.88-61.36,109.06-86C1234.26,1460.85,1222.54,1442.71,1218.3,1437.91ZM1081.86,1592.7c12.66-3,98.91-23.64,109-30.64,8-5.53,14.61-19.07,17.7-26.15a15.44,15.44,0,0,1,4.15,8.48c1,7.54-3.71,16.8-13.66,26.79-33.7,20.3-60.93,25.66-124.67,26.22C1076.58,1596,1079.09,1594.44,1081.86,1592.7Zm-113.81-14.81c-8.61-6.38-19.3-33.41-18.67-47.54.16-3.43,1-5.07,1.69-5.45s5.95-2.09,27,8.92c10.69,5.59,20.46,11.85,22,12.87,21.3,19.24,41,37.38,53.11,49.93C1039.44,1595,1010,1590.44,968.05,1577.89ZM841,1443.4c1.16,12.91,7.2,63,33.37,99.42-40.72-19.68-58.44-39.6-66.12-53.55-8.12-14.77-6.74-25.7-6.27-28.22C804.44,1457.91,817.8,1442.33,841,1443.4Zm-39.23,48.5c13.27,24.76,42.81,46.73,87.78,65.31,97.11,40.11,160.35,46.31,170.72,47.09l1,1.11,1.67-1c82.6-.05,110.26-6.71,155-37.1,18.53-12.6,31.55-34.92,37.66-64.53a187,187,0,0,0,3.76-35.32c5.46,2.62,15.09,7.2,27.86,13.07a194.71,194.71,0,0,1-6.26,60.18c-11.77,42.63-37.34,69.36-76,79.46-33.87,8.85-79.23,14.64-127.6,14.64-77.88,0-163.54-15-221.47-56.51-46.11-33-65.41-63.3-73.47-82.88-6.52-15.81-6.94-27.35-6.74-32.18,10.15-1.27,16.09-1.14,19.17-.85C794.29,1467.76,794.59,1478.47,801.79,1491.9Zm411,133.2c-15.31,30.62-71.58,144.28-92.4,201.44-20.58-27.51-114.32-151.44-167.75-198.89a494.68,494.68,0,0,0,74.91,12.09c16.83,1.46,33.9,2.17,50.88,2.17,45.58,0,90.49-5.16,128.24-15C1208.75,1626.34,1210.78,1625.74,1212.79,1625.1Zm-832-7.15.14-.61c2.38-10.43,9.88-34.15,21.05-46.61,17.3,23.71,122.55,170.64,142.6,263.84,19.09,88.74,22.67,154.83,23.27,170.48H254.13c12-41.06,103.49-351.51,126.34-386.58Zm1223.54,387.1c29.37-88.3,44.85-283.77,48.28-331.53,8.39,14.35,24.41,45.57,34.72,89.84,13.35,57.32,52,213.68,58.91,241.69Z" transform="translate(-244.85 -126.35)"/><path class="cls-9" d="M1000.15,1546.69c-1.58-1-11.35-7.28-22-12.87-21.09-11-26.22-9.37-27-8.92s-1.53,2-1.69,5.45c-.63,14.13,10.06,41.16,18.67,47.54,41.9,12.55,71.39,17.13,85.21,18.73C1041.16,1584.07,1021.45,1565.93,1000.15,1546.69Z" transform="translate(-244.85 -126.35)"/><path class="cls-9" d="M1208.53,1535.91c-3.09,7.08-9.75,20.62-17.7,26.15-10.06,7-96.31,27.64-109,30.64-2.77,1.74-5.28,3.32-7.51,4.7,63.74-.56,91-5.92,124.67-26.22,10-10,14.68-19.25,13.66-26.79A15.44,15.44,0,0,0,1208.53,1535.91Z" transform="translate(-244.85 -126.35)"/><path class="cls-9" d="M1220.4,1377.49l-2.1,60.42c3.09,3.5,10.17,14.1,3.92,32.91C1243.46,1423,1220.4,1377.49,1220.4,1377.49Z" transform="translate(-244.85 -126.35)"/><path class="cls-9" d="M820.64,1447c4.22,11.17,8.21,24.39,9.42,36.77a32.8,32.8,0,0,1-7.27,24.35c10.66,10.73,26.9,22.76,51.6,34.69-26.17-36.36-32.21-86.51-33.37-99.42A46.16,46.16,0,0,0,820.64,1447Z" transform="translate(-244.85 -126.35)"/><path class="cls-9" d="M848.45,1447.28c2.26,19,10.91,70.68,40.21,102l3.56,1.5c17,7,32.9,13,47.67,18C887.35,1531.74,861,1481.18,848.45,1447.28Z" transform="translate(-244.85 -126.35)"/><path class="cls-10" d="M518,1761c10.26,42.46,12.53,75.78,12.53,75.78-29-49.82-99-135.34-99-135.34L427.22,1766c76.89,46.26,103.3,160,103.3,160C474,1904,372,1843,371.17,1842.54c.29.83,19.18,53.92,24.35,59.09s93.87,20.27,100.24,56.77a104,104,0,0,1-2.89,46.65h75c-.6-15.65-4.18-81.74-23.27-170.48C539.81,1812.29,530.15,1787,518,1761Z" transform="translate(-244.85 -126.35)"/><path class="cls-10" d="M771.91,1806.51s-6.74,92.51-152.75,127.27c0,0,4.35-166.91-19.11-248.58s-62.58-114.47-62.58-114.47,36.47,170.12,30.4,224c-1.45,12.85-8.33,23.34-18,31.84.56,2.22,1.06,4.4,1.52,6.54,19.29,89.68,22.84,156.46,23.43,171.94H943.94C889.46,1970.86,802.22,1903.25,771.91,1806.51Z" transform="translate(-244.85 -126.35)"/><path class="cls-10" d="M936.32,1623.27c-29.52-8.61-59.12-21.14-84.53-39.33-47.82-34.25-67.79-66-76.11-86.52-.95-2.33-1.77-4.56-2.48-6.71,6.52,20.31,38,109.89,101.19,159.75,46.91,37,134.06,84.59,188.51,113C1021.43,1711,966.92,1645.71,936.32,1623.27Z" transform="translate(-244.85 -126.35)"/><path class="cls-10" d="M1640,1741.82l-1.68-7.18c1,87.33-50.41,201.75-50.41,201.75,0-60.84-21.44-162.52-21.44-162.52-4.38,103-54.26,187.11-86.52,231.18H1597c13-37.84,23.25-97,31-155.67C1633.08,1811.27,1637.05,1773.4,1640,1741.82Z" transform="translate(-244.85 -126.35)"/><path class="cls-10" d="M1639.6,1812.38c-8,69-19.69,145.89-35.25,192.67h57.13V1876.14C1661.48,1856,1649.59,1830.35,1639.6,1812.38Z" transform="translate(-244.85 -126.35)"/><path class="cls-11" d="M1508.14,1566c-77.79-22.46-164.53-59.79-213.83-82.24a202.77,202.77,0,0,1-1.6,33.34c48,13.55,180.13,52.28,204.22,74.25,29.55,26.94,31.29,143.27,31.29,143.27s21.73-38.12,33.9-65.93c11.94-27.29,8-54.58,7.83-55.59.88,2.09,56.77,134.91,58.08,236.26,11.81-89.22,17.74-177.09,18.34-186.2-1.27-3.11-7.95-17.89-25.7-35.73C1602.23,1608.94,1567.74,1583.25,1508.14,1566Z" transform="translate(-244.85 -126.35)"/><path class="cls-11" d="M1746.26,2005.05c-6.92-28-45.56-184.37-58.91-241.68-10.31-44.28-26.32-75.5-34.72-89.85-.9,12.66-2.66,35.69-5.3,64.36,11.25,20.58,35.12,70.1,44.28,134.2,6,41.91,2.14,92.44-3.33,133Z" transform="translate(-244.85 -126.35)"/><path class="cls-11" d="M768.64,1464.24a384,384,0,0,0-38.49,8.52c-9.88,2.65-19.25,5.28-28.31,7.82-43.39,12.15-80.87,22.65-149,29.36-56.19,5.55-90.41,26.18-113,39.84-10.64,6.41-19,11.47-26.66,13.38a18.55,18.55,0,0,0-6,2.86c7.39,10.09,34.19,47.2,62.67,93.13,30.32,48.89,52.68,91.48,66.86,127.28-5-36-14-90.68-24.43-109-16.08-28.24-85.61-88.64-78.22-101.24s72.72,16.66,72.72,16.66c-10.43-71.85,46.34-69,112.39-71.27s136.74,59.67,136.74,59.67-9.27-58.51,7-83.43a81.23,81.23,0,0,1,9.06-11.25A77.27,77.27,0,0,1,768.64,1464.24Z" transform="translate(-244.85 -126.35)"/><path class="cls-11" d="M394.94,1656.55c24.42,1.8,51.5,6.75,71.88,11.08-29.06-47.3-56.68-85.74-64.82-96.9-11.17,12.46-18.68,36.18-21.05,46.61l-.14.6-.34.52c-22.85,35.08-114.3,345.52-126.34,386.59h73.58c-7.88-107.72,37.68-259.86,37.68-259.86,58.64-.57,121.84,71.29,122.82,72.41-.12-.88-4.78-32.78-15.63-57.35C461.57,1735.35,394.94,1656.55,394.94,1656.55Z" transform="translate(-244.85 -126.35)"/><path class="cls-2" d="M631.15,788.18c-13.12-1-21.34,7.27-23.45,9.71-7.4,40.52,38.56,104.24,39,104.89l.85,1.17-.05,1.43c0,.41-1.36,41.2,5,62.06,3.66,12.08,28.56,20.16,46.8,24.22C692.05,941.2,685.52,880,680.4,826.29,659.42,797.21,642.64,789.06,631.15,788.18Z" transform="translate(-244.85 -126.35)"/><path class="cls-2" d="M631.85,779.69c15.32,1.18,31,11.39,47,30.46-1.32-14.17-2.52-27.65-3.6-40.09-9.83-6-19.87-9.07-29.19-9.07a37.9,37.9,0,0,0-13,2.2c-9.15,3.32-16.35,10.44-21,20.49A36.11,36.11,0,0,1,631.85,779.69Z" transform="translate(-244.85 -126.35)"/><path class="cls-2" d="M1469.41,786.14c-12.44-.25-26.9,9.48-39.07,20.52-4.4,55.07-9.67,115.57-15.1,166.05,6.37,1.62,11.39,1.29,15.27-1,10.28-6.11,13.19-26.54,16-46.3,2.55-17.86,5.18-36.32,13.2-49,13.82-21.87,26.48-53.79,28.46-79.3C1482.92,789.88,1476.77,786.29,1469.41,786.14Z" transform="translate(-244.85 -126.35)"/><path class="cls-2" d="M1431.32,794.39c11.7-9.39,25.29-17,38.27-16.77a29.74,29.74,0,0,1,18.58,6.88c-.88-9.92-4.07-18.09-10.4-23.13-15.53-12.35-32.89-7.87-43.68-2.82C1433.22,770,1432.29,782,1431.32,794.39Z" transform="translate(-244.85 -126.35)"/><path class="cls-2" d="M1439.24,684.05c9.49-43.24-18-173.69-49.09-232.65-29.32-55.65-99-116.58-109.19-125.35H796.8l-64.21,67.71-64.82,229.5,16,103.4c.23,2.84,23.32,284.28,47.15,349.84,26.42,72.73,174.51,204.67,220.36,222.37,53.58,20.68,141.24,34.22,226.61,10.2,39.88-11.22,90-49.38,137.55-104.69,41-47.73,74.47-102.22,83.2-135.58,17.3-66.15,40.29-381.09,40.52-384.26Z" transform="translate(-244.85 -126.35)"/><path class="cls-3" d="M1433.33,684.27,1420.85,809l-7.11,113.37s-12.7,92.82-16.33,126.76-27.93,80.26-27.93,80.26a598.45,598.45,0,0,1-66.52,84c-4.66,4.86-9.49,9.7-14.47,14.44-20.82,19.89-44.32,38.21-68.82,49.8a139.09,139.09,0,0,1-28,10c-91.43,21.26-212-64.24-212-64.24,10.71-13.73,24.55-23.88,39.68-31.35,54-26.7,124.17-19.2,124.17-19.2-7.73-63.77-53.2-73.69-53.2-73.69s10.5-4.88,25.82-11.28c29-12.12,75.38-29.71,99.95-29.82,13.54-.06,20.92,7.75,24.84,17.77,6.77,17.31,3.18,41.2,3,42.42a438.09,438.09,0,0,0,21-64.77c5.48-23.38,8.92-49.1,5.14-69.82-5.75-31.5-42.81-79.4-70.92-112-18-21-32.37-35.6-32.37-35.6-28.53-52-22.25-113.84-22.25-113.84,65.79,83.61,172.71,57.19,172.71,57.19,17.42-21.68,34.35-67.58,34.35-67.58-22.26-71.31-142.71-96.2-142.71-96.2-160.6,40.82-282-21.91-282-21.91v-324c0-180.46,199.31-61.42,343.73-14,39.44,13,67.54,33.6,87.54,56.75,53.22,61.58,49.11,141,49.11,141s15.86,25,23.8,78.92S1433.33,684.27,1433.33,684.27Z" transform="translate(-244.85 -126.35)"/><path class="cls-3" d="M1304.17,739.18c-67.13,22.68-129.81-4-129.81-4s33.78,33.49,82.54,30.65S1304.17,739.18,1304.17,739.18Z" transform="translate(-244.85 -126.35)"/><path class="cls-3" d="M1132,843.1c-.06,25.51-28.11,37.8-45.53,37.8s-52.8-12.22-57.6-35.35S1040,798.73,1040,798.73l7.29-113.4a35.55,35.55,0,0,1,10.47-6.21c8.54-3.31,21.54-4.74,36.18,6.21l15.72,109.26S1132.06,817.59,1132,843.1Z" transform="translate(-244.85 -126.35)"/><path class="cls-3" d="M1130.38,879.36a42.59,42.59,0,0,1,39.06,8.3s11.88-8.17,7.25-25.89-29.63-25.51-29.63-25.51C1149.83,861.77,1130.38,879.36,1130.38,879.36Z" transform="translate(-244.85 -126.35)"/><path class="cls-3" d="M983.43,891.3c20.07-24.78,51.28-18.43,51.28-18.43-20.87-23-17.18-47.24-17.18-47.24C965.77,839.56,983.43,891.3,983.43,891.3Z" transform="translate(-244.85 -126.35)"/><path class="cls-3" d="M1249.5,999.94c-5.32,14.17-42,38.08-42,38.08h-285s-31.93-25.8-28.54-47.53,67.73-91.17,67.73-91.17S1026,940,1090.83,940s98.68-46.45,98.68-46.45S1254.82,985.77,1249.5,999.94Z" transform="translate(-244.85 -126.35)"/><path class="cls-3" d="M836.37,668s54.9-31.88,111.14-11l-25-39.68S837,595.24,794.27,632C794.27,632,804.69,651,836.37,668Z" transform="translate(-244.85 -126.35)"/><path class="cls-3" d="M818.46,746.27s34.59,39.44,92.16,26,77.16-40.19,77.16-40.19S898.77,773.67,818.46,746.27Z" transform="translate(-244.85 -126.35)"/><path class="cls-3" d="M998.3,744.38s-6.64,49.19-28.82,94.1v0c-1.4,1.43-90.9,93.29-107.7,166.4-16.71,72.68-.47,148.09,0,150.14-1.17-2.55-52.74-115.8-12.57-211.79,0,0-31.93,25.51-39.91,90.7,0,0-47.46-160.22-9.79-252.41C799.48,781.54,904.33,825.39,998.3,744.38Z" transform="translate(-244.85 -126.35)"/><path class="cls-12" d="M1431.34,575.72c-7.32-50.43-21.94-73.86-21.94-73.86s3.79-74.31-45.28-131.95c-37.94,2.56-63.78,12.11-63.78,12.11V649.07l81.36,26.83s13.66,306.7-68.42,537.23a558.94,558.94,0,0,0,61.33-78.65s22.41-43.34,25.76-75.11,15.05-118.63,15.05-118.63l6.56-106.1,11.5-116.71S1438.66,626.13,1431.34,575.72Z" transform="translate(-244.85 -126.35)"/><path class="cls-13" d="M1260,1003.85c5.45-14.24-61.34-107-61.34-107-15.66,64.86-99.44,85.49-99.44,85.49s-24.74-13.18-31.66-16.52-51.46,33.24-51.46,33.24-13.53,19.89,2.87,43h198S1254.59,1018.09,1260,1003.85Z" transform="translate(-244.85 -126.35)"/><path class="cls-14" d="M1151.67,1177.56s-71.73-7.54-127,19.29c0,0,70.94,73.06,204.83,86,25-11.64,49.08-30,70.38-50l-36.66,8S1239,1197.49,1151.67,1177.56Z" transform="translate(-244.85 -126.35)"/><path class="cls-15" d="M799.8,784.42s2.53,83.92,75.53,124.39c0,0,47.44-50.47,98.32-67.17h0c22.68-45.12,29.48-94.54,29.48-94.54C907,828.47,799.8,784.42,799.8,784.42Z" transform="translate(-244.85 -126.35)"/><path class="cls-16" d="M1093.3,884.24c17.81,0,46.5-12.34,46.56-38s-22.81-48.74-22.81-48.74L1101,687.75c-15-11-28.27-9.56-37-6.23l3.11,116S1017.1,860.51,1093.3,884.24Z" transform="translate(-244.85 -126.35)"/><path class="cls-17" d="M687.3,837.49l.33.29-.31.09C687.32,837.74,687.3,837.61,687.3,837.49Z" transform="translate(-244.85 -126.35)"/><path class="cls-18" d="M1248.4,1277.58s-36.36,38.64-100.93,47-121,9.4-177.36-11.49-100.55-65.46-100.55-65.46-54.32-50.94-93.49-96.18c-14.26-16.49-26.52-32.23-33.41-44.47-25.81-45.85-34.13-109.66-34.13-109.66l-16-122.12-4.94-49.7-6.19-62.14-14.66-131,5.73-94.3,1.26-20.83s-3.46-117.44,43-169.44,136.05-69.62,136.05-69.62V589.64s-78.17,29.48-87.07,117.78,17.81,312.07,62.33,405.83c0,0-21.27-94,20.28-160.12-.73,1.91-46.21,122,43.05,228.36,0,0-29.68-71.86-28.94-145.25,0,0,72,186.33,143.22,236.46S1248.4,1277.58,1248.4,1277.58Z" transform="translate(-244.85 -126.35)"/><path class="cls-17" d="M805.12,723.05c21-23.56,73.45-31.89,73.45-31.89-60.21,18.56-78.77,53-78.77,53,58.63-29,187.75-12.16,187.75-12.16-43.41,50.66-127.29,41.65-127.29,41.65,96.14,22.79,149.93-46.58,149.93-46.58-2.23,35.41-20.78,74.59-20.78,74.59s25.72-28.49,28.2-35.13,20.28-51.73,16.82-85.43-60.77-57-60.77-57l-56.32,2.28,38.19,41.14C843,651.68,805.12,723.05,805.12,723.05Z" transform="translate(-244.85 -126.35)"/><path class="cls-17" d="M1316.67,685.32c-31.41-16.08-98.19-15.36-98.19-15.36s17.58-36.08,59.12-44.38l-35.33-12.82s-54.72,7.12-76.49,32.28-32.16,27.05-31.42,59.09-2.22,60.61,24.25,80.73c0,0-13.36-28.05-5.94-60.09,0,0,47.23,38.45,87.06,44.85s69.15-10.32,69.15-10.32-36.82,14.83-79.45-3-30.75-17.94-64.89-29.26c0,0,132.59-9.08,178.85,13.41,0,0-40.57-55.58-112.31-55.11,0,0,79.41-3.28,119.73,37.76C1350.81,723.14,1348.09,701.39,1316.67,685.32Z" transform="translate(-244.85 -126.35)"/><path class="cls-17" d="M1179.63,894.7c-15.58-14.46-50.71-3.66-50.71-3.66l10.94-9.82a111.84,111.84,0,0,1-49.34,12.1c-27.64,0-48.61-18.51-48.61-18.51l8.54,10.86s-20-6.23-36-2a33.68,33.68,0,0,0-21.58,17.09c-29.19-16-6-59.18-6-59.18-47,28.1-115.72,155.58-115.72,155.58,34.69-61.76,103.54-138,103.54-138s-15,28.09,12.18,46.12,75.74-1.42,75.74-1.42,9.65,10.44,15.58,12.1,18.31,2.14,28,1.19,19-13.05,19-13.05,24.24,8.78,46.42,2.38,22.12-31.93,22.12-31.93c35.89,36.67,76.91,122.57,76.91,122.57-20-67.87-89.3-148.46-89.3-148.46C1199.67,871.85,1179.63,894.7,1179.63,894.7Z" transform="translate(-244.85 -126.35)"/><path class="cls-17" d="M653.67,870.72c-10,26.81,4,59.09,4,59.09,8.71-15.19,31.67-24.21,31.67-24.21,1.33-9.43-.91-49.43-2-67.74A53.82,53.82,0,0,0,653.67,870.72Z" transform="translate(-244.85 -126.35)"/><path class="cls-17" d="M648.79,790.51c-26-15.52-43.54,3.56-43.54,3.56s-7.13,10.44,3.22,45.32,31.91,63.36,31.91,63.36c-9.65-33.93,16.82-92.31,16.82-92.31l30.1,27c-.33-5.42-.57-8.85-.57-8.85S674.81,806,648.79,790.51Z" transform="translate(-244.85 -126.35)"/><path class="cls-17" d="M1435.41,805l-.15,2.06,15.36-11.2s17.44,6.89,17.7,48.89-25.49,86.86-25.49,86.86l16,15.3s2-42.24,17.93-71.19,27.21-79.86,27.21-79.86C1482.65,760.6,1435.41,805,1435.41,805Z" transform="translate(-244.85 -126.35)"/><path class="cls-17" d="M1451.74,879.74c2-21.12-16.58-48.42-16.58-48.42V808.55L1428,912S1449.75,900.86,1451.74,879.74Z" transform="translate(-244.85 -126.35)"/><polygon class="cls-17" points="1190.31 682.2 1190.41 680.69 1190.31 680.77 1190.31 682.2"/><path class="cls-17" d="M1235.82,1045.11c-2-.95-37.47,2-37.47,2s-26.67,23.65-9.28,18.69,38.59-1.42,38.59-1.42S1237.8,1046.06,1235.82,1045.11Z" transform="translate(-244.85 -126.35)"/><path class="cls-17" d="M950,1044.92l-12.78-24.82c-2-.34-22.6-6.44-42.09-14.69,0,0-4.88,17.36,3.16,24.2S950,1044.92,950,1044.92Z" transform="translate(-244.85 -126.35)"/><path class="cls-3" d="M799.8,1155c-17.36-16.46-32.28-32.17-40.66-44.39-31.41-45.78-41.55-109.48-41.55-109.48L698.17,879.26l-6-49.62-7.54-62-17.84-130.8,7-94.13c19.27-32.45,34-50,34-50l52.74,85.72s-22.92,96.94-26.37,201.64C731,875.13,764.22,1063.91,799.8,1155Z" transform="translate(-244.85 -126.35)"/><path class="cls-5" d="M1494.38,743.16c-17.13-13.16-36-10.41-49.15-5.54,4.14-53.24,6.89-93.11,7.29-98.87,9.7-47.81-18.5-190.26-50.43-254.48-32.63-65.65-110.47-135.25-113.77-138.18L1287,245H789l-69,77.11L653.49,571.75l16.4,112.14c.3,3.93,2.22,28.73,5.36,64.14-15.43-7.55-31.25-9.24-44.9-4.46-15.92,5.58-27,19.47-31.2,39.14-8.61,40.42,33.16,99.51,40,108.77-.2,7.48-.76,42.23,5.42,61.91,5.55,17.68,39,26.57,57.26,30.16,5.17,33.44,10.66,61.29,16.24,77.56,12.13,35.4,50.8,88,106.07,144.39,47.66,48.59,97.82,89.43,122,99.32,34.7,14.19,83.15,25.34,136.2,25.34a348.84,348.84,0,0,0,99.53-14.09c57.62-17.18,114.75-79.58,143.68-115.24,42.89-52.89,76.58-111.24,85.82-148.66,4.23-17.13,8.74-49,13.17-87.64a40,40,0,0,0,8.28,1,25.24,25.24,0,0,0,12.79-3.19c14-8,17.09-29,20.37-51.22,2.45-16.61,5-33.78,12.13-44.7C1496.57,838.08,1526.41,767.75,1494.38,743.16ZM1457.08,910c-2.85,19.32-5.8,39.29-16.2,45.27-3.93,2.25-9,2.57-15.47,1,5.5-49.35,10.84-108.5,15.3-162.33,12.32-10.8,27-20.32,39.56-20.07,7.45.15,13.68,3.66,19,10.71-2,24.94-14.82,56.15-28.82,77.53C1462.32,874.44,1459.66,892.49,1457.08,910Zm-54.46,140.35c-8.84,35.8-42.69,94.27-84.24,145.5-48.14,59.35-98.91,100.3-139.29,112.34-86.44,25.77-175.2,11.24-229.45-11-46.43-19-196.39-160.58-223.14-238.62C702.37,988.22,679,686.21,678.76,683.16L662.55,572.21l65.63-246.28,65-72.66h490.27c10.34,9.41,80.87,74.79,110.55,134.51,31.46,63.27,59.33,203.26,49.71,249.65l-.07.53C1443.42,641.36,1420.14,979.32,1402.62,1050.3ZM633.47,751.37a39.57,39.57,0,0,1,13.13-2.16c9.43,0,19.59,3,29.55,8.87,1.09,12.16,2.31,25.34,3.64,39.2-16.18-18.64-32.11-28.63-47.63-29.78a37.6,37.6,0,0,0-19.94,3.9C616.92,761.57,624.2,754.62,633.47,751.37Zm13.76,136.47c-.47-.64-47-62.94-39.52-102.55a29.42,29.42,0,0,1,23.74-9.49c11.64.86,28.63,8.83,49.88,37.25,5.18,52.56,11.79,112.35,19.12,161.69-18.47-4-43.68-11.88-47.39-23.69-6.4-20.39-5-60.27-5-60.67l.05-1.4Zm841.5-138.25c6.41,4.93,9.65,12.91,10.53,22.61a30.71,30.71,0,0,0-18.8-6.72c-13.15-.28-26.91,7.21-38.76,16.39,1-12.07,1.92-23.82,2.81-35C1455.43,741.89,1473,737.51,1488.73,749.59Z" transform="translate(-244.85 -126.35)"/><path class="cls-5" d="M1187.18,851.85s24.11,42.36-20,57C1167.14,908.81,1203.87,894.92,1187.18,851.85Z" transform="translate(-244.85 -126.35)"/><path class="cls-5" d="M1121.25,902.75s23.63-20.46,47-7.29l-8.41-1.13s-11.75,6.29-29.31,4.63Z" transform="translate(-244.85 -126.35)"/><path class="cls-5" d="M1005,893.74s28.76-15.37,58.81,7.06l-10.39-3.9s-26.34,1.94-39-4.47Z" transform="translate(-244.85 -126.35)"/><path class="cls-5" d="M978.28,851.85s-28.57,47,24.86,58.74C1003.14,910.59,957.87,900.26,978.28,851.85Z" transform="translate(-244.85 -126.35)"/><path class="cls-5" d="M1155.26,646.46s.38-22.78,7.06-32.92l.92,9.25s62.15-39.93,135.87-38.5,98.94,57.9,98.94,57.9S1261.74,594.49,1155.26,646.46Z" transform="translate(-244.85 -126.35)"/><path class="cls-5" d="M760.84,636.92s22.76-37.44,64.81-51.21,105.36,1.19,171.92,27l-3.21-7.82s12.12,7.83,15.08,11.87,4.42,27.7,4.42,27.7S845,599.38,760.84,636.92Z" transform="translate(-244.85 -126.35)"/><path class="cls-19" d="M1289.21,617.63c-87.93-10.32-150.39,31.68-150.39,31.68-58.39-26.58-116.76,0-116.76,0s-58.88-38.91-145.94-38.44-191.34,35.24-191.34,35.24c-11.5,14.23-36,48-36,48V738.3l16.32,19.93.38-28.43,28.57-50.59,26.22,15.66s-.5,30.37,31.66,91.6,148.42,68.59,221.88,38,72-149,72-149c25.6-14.47,62.33,0,62.33,0s3,53.17,39.08,109.17,75.2,67.63,151.64,63.36,109.09-43.79,119.85-82.23,25.23-65.85,25.23-65.85l9.65,42h17.81V654.65S1377.15,628,1289.21,617.63ZM976.73,809.32a50.42,50.42,0,0,1-12.55,8c-36.11,15.2-152.87,27.53-190-24.67C742.47,748,730.64,662.77,802.71,636.94c12.22-4.4,26.85-7.08,44.22-7.56,0,0,121.7-7.84,162.89,34.17C1046.39,700.84,1010.51,781.14,976.73,809.32Zm420.64-33.89a134.93,134.93,0,0,1-6.73,13.08.67.67,0,0,1-.06.12c-7.15,12.16-15.77,22-25.18,27.74-40.57,24.69-140.1,32.32-186.51-12.81-41.35-40.2-60.85-144.72,28-169.43h0a155.37,155.37,0,0,1,37.72-5.21s102.9-1.43,145,29.9C1418.62,680.38,1415.41,735.3,1397.37,775.43Z" transform="translate(-244.85 -126.35)"/><path class="cls-20" d="M1471.4,683.84v58h-17.81l-9.65-42S1450.25,686,1471.4,683.84Z" transform="translate(-244.85 -126.35)"/><path class="cls-20" d="M1441.81,657.91a3.19,3.19,0,1,1-3.16-3.69A3.45,3.45,0,0,1,1441.81,657.91Z" transform="translate(-244.85 -126.35)"/><path class="cls-20" d="M1448.09,668.71a6.31,6.31,0,1,1-6.3-6.05A6.18,6.18,0,0,1,1448.09,668.71Z" transform="translate(-244.85 -126.35)"/><path class="cls-20" d="M707.16,661.53a6.32,6.32,0,1,1-6.31-6A6.19,6.19,0,0,1,707.16,661.53Z" transform="translate(-244.85 -126.35)"/><path class="cls-20" d="M724.11,661.53a6.31,6.31,0,1,1-6.31-6A6.18,6.18,0,0,1,724.11,661.53Z" transform="translate(-244.85 -126.35)"/><path class="cls-20" d="M684.78,646.11v31l-36,61.23V694.16S673.28,660.34,684.78,646.11Z" transform="translate(-244.85 -126.35)"/><path class="cls-20" d="M976.73,809.32c-15.05,15.83-51.14,32.57-123.12,25.09S759.73,792.05,749.28,754s-5.25-71.19,9.59-90.88,43.83-26.16,43.83-26.16v0C730.64,662.77,742.47,748,774.2,792.65c37.11,52.2,153.87,39.87,190,24.67A50.42,50.42,0,0,0,976.73,809.32Z" transform="translate(-244.85 -126.35)"/><path class="cls-20" d="M1390.58,788.63c-12,22.74-24.65,39.76-63.15,47.56-45.62,9.23-100.83,8.29-134.69-15.31s-59-66.92-51.57-122.09c7.3-54.31,64-64.36,65.76-64.66-88.89,24.71-69.39,129.23-28,169.43,46.41,45.13,145.94,37.5,186.51,12.81C1374.81,810.65,1383.43,800.79,1390.58,788.63Z" transform="translate(-244.85 -126.35)"/><path class="cls-5" d="M1175.43,690.6s35-24.61,94.12-13.88c55.53,10.08,75.32,36.13,75.32,36.13S1270.91,651.45,1175.43,690.6Z" transform="translate(-244.85 -126.35)"/><path class="cls-21" d="M1218.48,735.74c-7.42-1.41-14.87-3-21.87-4.84-3.65-3.85-7.52-9.91-4.36-16.56,2.18-4.57,8.51-6.42,15.2-7a29.55,29.55,0,0,0-.36,4.64A30.77,30.77,0,0,0,1218.48,735.74Z" transform="translate(-244.85 -126.35)"/><path class="cls-21" d="M1272.2,739.58h0a73.32,73.32,0,0,1-9,.86c-2.88.1-6.11,0-9.62-.13a31.5,31.5,0,0,0,18.44-24c3.72,1.75,6.66,3.85,8.25,6.43C1284,728.77,1278.91,734.77,1272.2,739.58Z" transform="translate(-244.85 -126.35)"/><path class="cls-22" d="M1183.12,727.08c-12.89-4.07-22.47-8.5-24.51-12.44,0,0,8.84-7.08,24.57-13C1180.54,709.11,1178.6,719.25,1183.12,727.08Z" transform="translate(-244.85 -126.35)"/><path class="cls-5" d="M1272.37,712a31.23,31.23,0,0,1-18.75,28.34,279.56,279.56,0,0,1-35.14-4.57A30.77,30.77,0,0,1,1207.09,712a30.36,30.36,0,0,1,5.58-17.51c2.33-.27,4.74-.5,7.2-.64a25.61,25.61,0,0,0-7.58,18.15c0,14.55,12.29,26.34,27.44,26.34s27.46-11.79,27.46-26.34a25.34,25.34,0,0,0-3.94-13.58c2.45.68,4.74,1.42,6.89,2.21A30,30,0,0,1,1272.37,712Z" transform="translate(-244.85 -126.35)"/><path class="cls-23" d="M1267.19,712c0,14.55-12.29,26.34-27.46,26.34s-27.44-11.79-27.44-26.34a25.61,25.61,0,0,1,7.58-18.15,136.62,136.62,0,0,1,43.38,4.57A25.34,25.34,0,0,1,1267.19,712Z" transform="translate(-244.85 -126.35)"/><ellipse class="cls-5" cx="994.88" cy="585.62" rx="11.63" ry="11.16"/><path class="cls-6" d="M1233.06,719.28a3.63,3.63,0,1,1-3.63-3.48A3.55,3.55,0,0,1,1233.06,719.28Z" transform="translate(-244.85 -126.35)"/><path class="cls-24" d="M1192.25,714.34c-3.16,6.65.71,12.71,4.36,16.56-4.74-1.23-9.29-2.51-13.49-3.82-4.52-7.83-2.58-18,.06-25.47a123.24,123.24,0,0,1,29.49-7.15,30.65,30.65,0,0,0-5.22,12.87C1200.76,707.92,1194.43,709.77,1192.25,714.34Z" transform="translate(-244.85 -126.35)"/><path class="cls-24" d="M1300.34,722.81s-5.75,13.15-28.14,16.77c6.71-4.81,11.82-10.81,8.11-16.83-1.59-2.58-4.53-4.68-8.25-6.43a31.37,31.37,0,0,0,.31-4.35,30,30,0,0,0-2.23-11.37C1294.19,709.3,1300.34,722.81,1300.34,722.81Z" transform="translate(-244.85 -126.35)"/><path class="cls-5" d="M1193.73,729.8s-37.91-7.16-38.46-14.64,38.46-27.41,85.52-23.49c49.8,4.14,75.16,21.94,88.5,40.87l-30.8-2.74s-9.28,10.64-35.25,10.64c0,0,27.72-3.51,32.47-17.27,0,0-8.12-21.15-55.23-24.5s-76.69,11.38-78.16,16.49S1193.73,729.8,1193.73,729.8Z" transform="translate(-244.85 -126.35)"/><path class="cls-5" d="M811.31,712.85s21.15-29.09,82-38.84,83.42,13,83.42,13S898.13,647.53,811.31,712.85Z" transform="translate(-244.85 -126.35)"/><path class="cls-21" d="M897.57,744q-3.26-.09-6.61-.29a198.72,198.72,0,0,1-26.74-3c-1.71-6.37-1.23-15.47,11.59-21.5A32.49,32.49,0,0,0,897.57,744Z" transform="translate(-244.85 -126.35)"/><path class="cls-21" d="M955.6,737.5a171.48,171.48,0,0,1-34.2,6,32.18,32.18,0,0,0,20.75-27.83C955.84,719.65,961.52,727.38,955.6,737.5Z" transform="translate(-244.85 -126.35)"/><path class="cls-22" d="M971.18,732c4-9.26,2.5-18,0-24.37,13.53,6,21.21,11.91,21.21,11.91S985.7,725.81,971.18,732Z" transform="translate(-244.85 -126.35)"/><path class="cls-5" d="M942.21,713.81c0,13.43-8.61,24.93-20.81,29.7a223.13,223.13,0,0,1-23.83.53c-13-4.42-22.24-16.29-22.24-30.23A30.74,30.74,0,0,1,878.57,700c2.57-.85,5.25-1.62,8.06-2.29A25.83,25.83,0,0,0,881,713.81c0,14.71,12.43,26.64,27.77,26.64s27.77-11.93,27.77-26.64A26,26,0,0,0,929.45,696c2.73.32,5.37.74,7.95,1.21A30.85,30.85,0,0,1,942.21,713.81Z" transform="translate(-244.85 -126.35)"/><path class="cls-25" d="M936.54,713.81c0,14.71-12.44,26.64-27.77,26.64S881,728.52,881,713.81a25.83,25.83,0,0,1,5.63-16.06,104.41,104.41,0,0,1,24.61-2.88A144.83,144.83,0,0,1,929.45,696,26,26,0,0,1,936.54,713.81Z" transform="translate(-244.85 -126.35)"/><ellipse class="cls-5" cx="663.92" cy="587.46" rx="13.11" ry="12.58"/><ellipse class="cls-6" cx="654.9" cy="596.69" rx="3.36" ry="3.22"/><path class="cls-24" d="M875.33,713.81a31,31,0,0,0,.48,5.4c-12.82,6-13.3,15.13-11.59,21.5-12.35-2.38-24.71-6.55-26.69-13.8,0,0,13.75-17.81,41-26.87A30.74,30.74,0,0,0,875.33,713.81Z" transform="translate(-244.85 -126.35)"/><path class="cls-24" d="M971.18,732a135.72,135.72,0,0,1-15.58,5.49c5.92-10.12.24-17.85-13.45-21.82.05-.62.06-1.24.06-1.87a30.85,30.85,0,0,0-4.81-16.57,149.94,149.94,0,0,1,33.77,10.4C973.68,714,975.2,722.75,971.18,732Z" transform="translate(-244.85 -126.35)"/><path class="cls-5" d="M807.6,734.74s38.21-39.84,96.1-42.52,96.27,23.6,93.87,27.21c-5.19,7.84-43.41,18.45-43.41,18.45s33.58-14.35,32.65-19-40.69-22.13-82-18.81a100.76,100.76,0,0,0-52.06,19.43,10.06,10.06,0,0,0,2.71,17.63c8.16,3.07,19.92,6.06,35.5,6.61,0,0-28.7,3.56-53.93-10.21C837,733.55,820,739.49,807.6,734.74Z" transform="translate(-244.85 -126.35)"/><path class="cls-26" d="M1061.36,1034.93" transform="translate(-244.85 -126.35)"/><path class="cls-27" d="M1143.35,1085.46s-34.87,27-87.07,18.75C1056.28,1104.21,1090.42,1092.1,1143.35,1085.46Z" transform="translate(-244.85 -126.35)"/><path class="cls-28" d="M1399.28,1237.64" transform="translate(-244.85 -126.35)"/><path class="cls-28" d="M1250.09,1084.35" transform="translate(-244.85 -126.35)"/><path class="cls-28" d="M1027.39,1093.65" transform="translate(-244.85 -126.35)"/><path class="cls-5" d="M1469.12,704.43h-22.56s-1.19-102-13.06-133.37-30.68-41.76-30.68-41.76-7.91-72.14-26.21-94.44a133.1,133.1,0,0,0-12.17-12.32h0c-8.39-7.71-19.4-17-31-26.41-30.89-25.08-66-51.25-66.88-51.9.28.74,18.82,48.09,55.27,55.16,0,0-22.63,8.89-44.52-17.09s-32.66-52.33-63.82-60.51c-29.81-7.84-112.15-14-119.35-14.56,4.89.56,44.35,6.45,56.88,54-1-1.87-38.68-70.4-153.85-50.27-9,1.57-17.37,3-25.25,4.22-29.37,4.64-51.5,7.19-68.08,8.5-36.94,2.89-46.19-.39-46.19-.39S851.7,354.17,891.77,357c0,0-41.88,3.78-52.88-23.1,1.23,3.69,22.07,68.56-32.7,98.08.74-.9,36.22-44.41,0-72.14,0,0-13.51,7.12-29.79,21.83h0c-20.87,18.87-46.31,50.16-53.81,94.93-13.35,79.73-10.64,119.6-10.64,119.6S670.29,623.5,682,701s7.6,153,7.6,153l-18-27.52-1.66-23-10.35-40.56v0l-6-23.48s-5.94-48.41-3.71-128.86-9.65-171.57,3.71-198.63c13.21-26.75,58.34-79.26,59.35-80.43-.8.27-26.64,9.4-38.82,34.63,0,0-3-38,48-54.11,0,0-5.43-29.9,14.86-54.43-1.41,2.15-18.4,28.85.1,49,0,0,45.64-110.7,91.65-135.27,45.3-24.17,62.55-32.49,63.07-32.73l-6.67,11.38s72.24-20,125.37-23.1c4.45-.25,8.79-.4,12.91-.4,53.43,0,89.54,14.71,89.54,14.71s58.38-5.21,136.55,23.27S1422.62,283,1421.62,348.47c0,0,50.47,37,51,90.18,0,0-.87-16.14-17.93-32.51,0,0,11.5,78.31,7.79,138.82C1462.44,545,1481,658.4,1469.12,704.43Z" transform="translate(-244.85 -126.35)"/><path class="cls-29" d="M1469.12,704.43h-22.56s-1.19-102-13.06-133.37-30.68-41.76-30.68-41.76-7.91-72.14-26.21-94.44a133.1,133.1,0,0,0-12.17-12.32h0c46.7,32.05,71.28,19.92,71.28,19.92-45.56-57.58-62.63-119.95-68.31-147.64,1.3,25-8.61,57-8.61,57,1.48-54.11-56.91-108.68-56.91-108.68-75.69,3.8-120.7-37.38-120.7-37.38,44.89,13.88,79.77-2.13,79.77-2.13-71.24-49.13-143.59-23.85-143.59-23.85,18.92-17.09,43.78-15.67,43.78-15.67-64.46-12.64-96.38,17.7-97.2,18.5,13.36-32,49-41.52,49-41.52s58.38-5.21,136.55,23.27q4.59,1.66,9.23,3.63h0c76.22,31.86,163.87,117.58,162.92,180.51,0,0,50.47,37,51,90.18,0,0-.87-16.14-17.93-32.51,0,0,2.52,17.21,4.83,41.73.88,9.44,1.74,19.95,2.39,31h0V479s0,.08,0,.12c0,.59.06,1.17.11,1.77,0,.11,0,.24,0,.37,1.19,20.79,1.68,43.24.42,63.67C1462.44,545,1481,658.4,1469.12,704.43Z" transform="translate(-244.85 -126.35)"/><path class="cls-29" d="M1333.42,396.12c-30.89-25.08-66-51.25-66.88-51.9.28.74,18.82,48.09,55.27,55.16,0,0-22.63,8.89-44.52-17.09s-32.66-52.33-63.82-60.51c-3.19-.84-7-1.66-11.21-2.45-35.35-6.64-101.71-11.64-108.14-12.11,4.89.56,44.35,6.45,56.88,54-1-1.87-38.68-70.4-153.85-50.27-9,1.57-17.37,3-25.25,4.22,0,0,30.69-47.89,119.24-35.54s125.18-2,125.18-2-17.32,15.12-72.73,18.78c0,0,105.38,3.19,149.4,5.09,43.35,1.86,58.88,67.66,59.35,69.72a0,0,0,0,0,0,0L1308.83,339S1318.9,369.28,1333.42,396.12Z" transform="translate(-244.85 -126.35)"/><path class="cls-29" d="M907.61,197.08c-36.62,54.1-24.74,83.52-24.74,83.52s24.23-33.69,70.24-8.06c0,0-56,5.85-49.29,51.16-36.94,2.89-46.19-.39-46.19-.39S851.7,354.17,891.77,357c0,0-41.88,3.78-52.88-23.1,1.23,3.69,22.07,68.56-32.7,98.08.74-.9,36.22-44.41,0-72.14,0,0-13.51,7.12-29.79,21.83h0c-1.27.59-78.46,35.77-98.33,114.15s-18.52,264.27-18.51,267l-6-23.48s-5.94-48.41-3.71-128.86c.89-31.92-.46-65.54-1.56-96.15,0-.13,0-.27,0-.4-1.67-46.36-2.75-85.8,5.28-102.08,13.21-26.75,58.34-79.26,59.35-80.43-.8.27-26.64,9.4-38.82,34.63,0,0-3-38,48-54.11,0,0-5.43-29.9,14.86-54.43-1.41,2.15-18.4,28.85.1,49,0,0,45.64-110.7,91.65-135.27,45.3-24.17,62.55-32.49,63.07-32.73l-6.67,11.38s72.24-20,125.37-23.1l-.07,0C1000,129.68,940.88,147.88,907.61,197.08Z" transform="translate(-244.85 -126.35)"/><path class="cls-30" d="M1459.47,447.86h0c-2.31-24.52-4.83-41.73-4.83-41.73,17.06,16.37,17.93,32.51,17.93,32.51-.49-53.16-51-90.18-51-90.18,1-62.93-86.7-148.65-162.92-180.51h0s91.19,43.11,93.67,128.54c0,0,3-30.14,20.78-24S1384.53,398.46,1459.47,447.86Z" transform="translate(-244.85 -126.35)"/><path class="cls-30" d="M1461.89,478.88h0a.91.91,0,0,0,0,.16Z" transform="translate(-244.85 -126.35)"/><path class="cls-30" d="M1462.44,545c1.26-20.43.77-42.88-.42-63.67.28,8.59-1,37.69-29.52,49,0,0,46.25,101.77,30.34,174.17h6.28C1481,658.4,1462.44,545,1462.44,545Z" transform="translate(-244.85 -126.35)"/><path class="cls-30" d="M1293,301.49c-44-1.9-149.4-5.09-149.4-5.09,55.41-3.66,72.73-18.78,72.73-18.78s-36.62,14.37-125.18,2S971.9,315.2,971.9,315.2c7.88-1.26,16.28-2.65,25.25-4.22,115.17-20.13,152.84,48.4,153.85,50.27-12.53-47.58-52-53.47-56.88-54,6.43.47,72.79,5.47,108.14,12.11a411.12,411.12,0,0,1,62.53.2c61.71,5.11,86.68,50.07,87.55,51.68C1351.87,369.15,1336.34,303.35,1293,301.49Z" transform="translate(-244.85 -126.35)"/><path class="cls-30" d="M1010.46,126.75c-53.13,3.09-125.37,23.1-125.37,23.1l6.67-11.38c-.52.24-17.77,8.56-63.07,32.73C782.68,195.77,737,306.47,737,306.47c-18.5-20.13-1.51-46.83-.1-49-20.29,24.53-14.86,54.43-14.86,54.43-51,16.15-48,54.11-48,54.11,12.18-25.23,38-34.36,38.82-34.63-1,1.17-46.14,53.68-59.35,80.43-8,16.28-6.95,55.72-5.28,102.08-1.67-73.1,42.25-127.08,103.49-174.68,55.59-43.21,68.11-89,70-97.2-7.81,37.94,7,72.74,7,72.74S832.89,244.06,873,190.9c39.45-52.33,134.46-63.79,137.42-64.13Z" transform="translate(-244.85 -126.35)"/><path class="cls-3" d="M687.3,837.49l.33.29-.31.09C687.32,837.74,687.3,837.61,687.3,837.49Z" transform="translate(-244.85 -126.35)"/><path class="cls-5" d="M1007.21,1095.73" transform="translate(-244.85 -126.35)"/><path class="cls-5" d="M994.54,1054.29" transform="translate(-244.85 -126.35)"/><path class="cls-31" d="M1086.27,1142.46" transform="translate(-244.85 -126.35)"/><path class="cls-6" d="M711.5,661.53" transform="translate(-244.85 -126.35)"/><path class="cls-5" d="M1282,1112.29" transform="translate(-244.85 -126.35)"/><path class="cls-5" d="M1223.35,1095.62" transform="translate(-244.85 -126.35)"/><path class="cls-26" d="M949.16,1070.33v-37.59s70.15-27.38,100.33-26.33,108.78,2.75,108.78,2.75l75.41,39.49v16.7s-44,23.05-115.71,23.84S954.78,1085.26,949.16,1070.33Z" transform="translate(-244.85 -126.35)"/><path class="cls-9" d="M1209.2,1045.89v33c-96.28,20.89-233.08,1.06-235.41,0v-38c7.81-1.43,16.26-2.53,25.15-3.35,65.81-6.18,155.94,2.26,193.14,6.38C1202.86,1045.07,1209.2,1045.89,1209.2,1045.89Z" transform="translate(-244.85 -126.35)"/><path class="cls-6" d="M1183.17,1049.54v29.76c-81.32,14-193.14,0-193.14,0V1043C1055.85,1036.66,1146,1045.32,1183.17,1049.54Z" transform="translate(-244.85 -126.35)"/><path class="cls-28" d="M1221,1026.3c-29.57-19.46-65.22-31.65-73.89-31.79-12-.2-57.09,12.11-57.09,12.11s-55.8-8-67.44-6-64.63,5.93-78.27,11.82-27.34,12-27.34,12l16.3,36.08s24.64,33.42,56.74,43.9c23.94,7.8,46.17,22.18,92.7,22.26,15.91,0,49.78-4.27,66.72-9.5,38-11.72,52.3-16.28,69.5-33.25a113.81,113.81,0,0,0,17.17-21.4l12.36-23.18C1243.32,1033.7,1232.48,1033.86,1221,1026.3Zm-3.59,40.25s-73.7,23.51-134.7,22.72-118.26-16.92-118.26-16.92l-15-13.32,10.43-20.34s46.55-18.47,78.25-17.68a465.07,465.07,0,0,1,57.79,5.1s40.13-5.89,57.79-3.53,72.91,28.56,72.91,28.56l-11.24,6.83Z" transform="translate(-244.85 -126.35)"/><path class="cls-31" d="M1221,1026.3l5.63,13.28s-68-30.13-78.47-30.64-55.84,3.4-55.84,3.4L1035,990.46c-11.63,2-70.41,14-84.06,19.89s-46.48,2.81-46.48,2.81,24.55,42.16,30.91,49.55,17.69,17.9,48.19,36.44c21.71,13.19,69.69,19.15,116.23,19.23-62.12-14.46-87.2-25.88-87.2-25.88,103.53,12.18,190.79-17.78,199.62-16.73,3.6.42,5.82-8.73,5.09-4.27,11.19-11,28.24-28,28.24-28l7.1-10.26C1247.52,1027.64,1232.48,1033.86,1221,1026.3Zm-18.25,32.62s-55.17,18.41-116.17,17.62-118.34-14.85-118.34-14.85l-22.59-18.25,14.24-8.7a156.11,156.11,0,0,1,38.3-6.85c11-.59,24.75,2.72,35.43,3a246.7,246.7,0,0,1,57.85,8.61s45.2-10.94,62.86-8.59,72.3,16.3,72.3,16.3l-5.85-3.75Zm-104.24-92.54" transform="translate(-244.85 -126.35)"/><path class="cls-31" d="M1174.05,1028.57" transform="translate(-244.85 -126.35)"/><path class="cls-31" d="M1062.5,1099.15" transform="translate(-244.85 -126.35)"/><path class="cls-28" d="M1006.68,1136.73" transform="translate(-244.85 -126.35)"/><polygon points="683.18 898.99 721.56 906.5 719.47 936.78 700.82 922.02 683.18 898.99"/><polygon points="982.28 914.32 950.9 912.99 951.84 938.79 975.98 927.28 982.28 914.32"/><path class="cls-31" d="M1252.67,1143.38" transform="translate(-244.85 -126.35)"/><path class="cls-31" d="M1016.2,1079.42" transform="translate(-244.85 -126.35)"/><path class="cls-31" d="M1508.52,1253.16" transform="translate(-244.85 -126.35)"/><path class="cls-28" d="M1578,1296.3" transform="translate(-244.85 -126.35)"/><path class="cls-31" d="M935.32,1084.35" transform="translate(-244.85 -126.35)"/><path class="cls-26" d="M1012.66,1066.16" transform="translate(-244.85 -126.35)"/><path class="cls-26" d="M957.59,1009.59" transform="translate(-244.85 -126.35)"/><path class="cls-26" d="M1212.84,1015.27" transform="translate(-244.85 -126.35)"/><path class="cls-31" d="M1829.16,888.6" transform="translate(-244.85 -126.35)"/></svg>