<?xml version="1.0" encoding="utf-8"?>
<!-- Generator: Adobe Illustrator 23.1.1, SVG Export Plug-In . SVG Version: 6.00 Build 0)  -->
<svg version="1.1" id="Layer_1" xmlns="http://www.w3.org/2000/svg" xmlns:xlink="http://www.w3.org/1999/xlink" x="0px" y="0px"
	 viewBox="0 0 1280 1024" style="enable-background:new 0 0 1280 1024;" xml:space="preserve">
<style type="text/css">
	.st0{fill:#FFFFFF;}
</style>
<g>
	<path d="M620,504.5c17.92,0,32.5,14.58,32.5,32.5s-14.58,32.5-32.5,32.5s-32.5-14.58-32.5-32.5S602.08,504.5,620,504.5 M620,489.5
		c-26.23,0-47.5,21.27-47.5,47.5c0,26.23,21.27,47.5,47.5,47.5s47.5-21.27,47.5-47.5C667.5,510.77,646.23,489.5,620,489.5L620,489.5
		z"/>
</g>
<path class="st0" d="M620,504.5c0,0,0-12.95,0-15c10.75-0.62,35.19,5.36,44.56,31c-4.49,1.98-9.11,3.8-13.98,5.45
	C647.15,517.87,639.06,505.42,620,504.5z"/>
<path class="st0" d="M644,515"/>
<path class="st0" d="M644.78,517.44"/>
</svg>
